<svg width="39" height="29" viewBox="0 0 41 31" fill="none" xmlns="http://www.w3.org/2000/svg">
<path d="M11.9555 13.8C13.4888 13.8 14.7555 14.4 15.7555 15.6C16.7555 16.7333 17.2555 18.3667 17.2555 20.5C17.2555 21.8333 17.0555 23.1 16.6555 24.3C16.2555 25.5 15.6555 26.5667 14.8555 27.5C14.0555 28.4333 13.0555 29.2 11.8555 29.8C10.6555 30.3333 9.25547 30.6 7.65547 30.6C6.5888 30.6 5.5888 30.4667 4.65547 30.2C3.7888 29.8667 3.02214 29.3667 2.35547 28.7C1.6888 27.9667 1.15547 27 0.755469 25.8C0.355469 24.6 0.155469 23.0667 0.155469 21.2C0.155469 18.5333 0.555469 15.9333 1.35547 13.4C2.15547 10.8667 3.22214 8.6 4.55547 6.6C5.95547 4.6 7.52214 3 9.25547 1.79999C10.9888 0.599994 12.8221 -5.96046e-06 14.7555 -5.96046e-06C16.2888 -5.96046e-06 17.2888 0.366662 17.7555 1.1C18.2888 1.76666 18.5555 2.56666 18.5555 3.5C18.5555 3.76666 18.1888 4.23333 17.4555 4.9C16.7888 5.56666 16.0555 6.36666 15.2555 7.3C14.4555 8.16666 13.6888 9.16666 12.9555 10.3C12.2888 11.4333 11.9555 12.6 11.9555 13.8ZM33.7555 13.8C35.2888 13.8 36.5555 14.4 37.5555 15.6C38.5555 16.7333 39.0555 18.3667 39.0555 20.5C39.0555 21.8333 38.8555 23.1 38.4555 24.3C38.0555 25.5 37.4555 26.5667 36.6555 27.5C35.8555 28.4333 34.8555 29.2 33.6555 29.8C32.4555 30.3333 31.0555 30.6 29.4555 30.6C28.3888 30.6 27.3888 30.4667 26.4555 30.2C25.5888 29.8667 24.8221 29.3667 24.1555 28.7C23.4888 27.9667 22.9555 27 22.5555 25.8C22.1555 24.6 21.9555 23.0667 21.9555 21.2C21.9555 18.5333 22.3555 15.9333 23.1555 13.4C23.9555 10.8667 25.0221 8.6 26.3555 6.6C27.7555 4.6 29.3221 3 31.0555 1.79999C32.7888 0.599994 34.6221 -5.96046e-06 36.5555 -5.96046e-06C38.0888 -5.96046e-06 39.0888 0.366662 39.5555 1.1C40.0888 1.76666 40.3555 2.56666 40.3555 3.5C40.3555 3.76666 39.9888 4.23333 39.2555 4.9C38.5888 5.56666 37.8555 6.36666 37.0555 7.3C36.2555 8.16666 35.4888 9.16666 34.7555 10.3C34.0888 11.4333 33.7555 12.6 33.7555 13.8Z" fill="#7139DC"/>
</svg>
